<?xml version="1.0" encoding="UTF-8"?>
<svg id="Layer_2" xmlns="http://www.w3.org/2000/svg" width="72.26" height="76.1" viewBox="0 0 72.26 76.1">
  <defs>
    <style>
      .cls-1 {
        stroke-width: .44px;
      }

      .cls-1, .cls-2, .cls-3, .cls-4, .cls-5 {
        stroke-miterlimit: 10;
      }

      .cls-1, .cls-3, .cls-4 {
        fill: none;
        stroke: #db9435;
        stroke-linecap: round;
      }

      .cls-2 {
        stroke: #d38e33;
        stroke-width: .47px;
      }

      .cls-2, .cls-5 {
        fill: #fbb03b;
      }

      .cls-3 {
        stroke-width: .98px;
      }

      .cls-6 {
        opacity: .86;
      }

      .cls-4 {
        stroke-width: .4px;
      }

      .cls-5 {
        stroke: #d69136;
        stroke-width: .94px;
      }
    </style>
  </defs>
  <g id="Layer_2-2" data-name="Layer_2" class="cls-6">
    <polygon class="cls-5" points="58.65 15.58 60.53 13.7 62.41 8.08 60.53 2.45 56.78 .57 51.15 2.45 49.27 4.32 45.52 2.45 39.89 2.45 34.26 4.32 32.39 4.32 30.51 2.45 28.63 2.45 24.88 .57 21.13 4.32 21.13 9.95 24.88 13.7 23 17.46 23 21.21 23 24.96 24.88 28.72 26.76 30.59 28.63 34.34 24.88 34.34 21.13 38.1 17.38 41.85 15.5 45.6 15.5 48.06 15.5 51.23 9.87 49.36 6.12 49.36 2.36 53.11 .49 58.74 2.36 66.24 6.12 69.99 11.75 71.87 21.13 69.99 24.88 69.99 28.63 66.24 36.14 68.34 39.89 73.75 51.15 75.62 58.65 73.75 60.53 68.12 68.04 66.24 71.79 60.61 71.79 54.98 66.16 39.97 60.53 36.22 54.9 32.47 53.03 32.47 58.65 24.96 58.65 19.33 58.65 17.46 58.65 15.58"/>
    <path d="M41.77,19.33c-.85.33-.85,3.42,0,3.75.55.22,1.88-.59,1.88-1.88s-1.32-2.09-1.88-1.88Z"/>
    <path d="M30.51,19.33c.39.17.64,1.23,0,1.88s-1.71.39-1.88,0c-.26-.59,1.29-2.14,1.88-1.88Z"/>
    <path class="cls-2" d="M36.14,19.33c3.91.3,8.88,3,9.38,7.51.35,3.12-1.57,6.02-3.75,7.51-4.44,3.01-10.28.38-13.13-1.88-1.3-1.03-3.78-2.98-3.75-5.63.04-4.06,5.93-7.92,11.26-7.51Z"/>
    <ellipse cx="34.26" cy="26.84" rx="4.69" ry="2.81"/>
    <path class="cls-3" d="M60.34,66.9c.87-7.89-2.81-14.22-7.62-15.41-4.44-1.1-8.85,2.45-10.17,3.51-5.83,4.7-6.34,11.53-6.41,13.11"/>
    <path class="cls-1" d="M28.62,66.17c1.83-.84.97-4.25-1.4-7.48-2.18-2.97-5.14-5.11-6.03-5.75-3.93-2.83-5.38-1.95-5.69-1.72"/>
    <polyline class="cls-4" points="56.15 53.37 58.65 47.48 53.03 41.85"/>
    <polyline class="cls-4" points="28.63 41.85 24.88 47.48 22.61 54.19"/>
  </g>
</svg>