<?xml version="1.0" encoding="UTF-8"?>
<svg id="Layer_2" xmlns="http://www.w3.org/2000/svg" width="52.3" height="67.22" viewBox="0 0 52.3 67.22">
  <defs>
    <style>
      .cls-1 {
        fill: #024222;
      }

      .cls-2 {
        fill: #006837;
      }

      .cls-3 {
        fill: #603813;
      }
    </style>
  </defs>
  <g id="Layer_5">
    <path class="cls-1" d="M24.87,44.68c-.08-.23-.16-.46-.19-.7.09.61.05-.1.06-.24-.02.58.07-.1.09-.22-.1.46.06-.06.13-.22-.19.39.03-.04.2-.19-.47.4.39-.36-.1.06.28-.06.33-.09.13-.07-.2,0-.15,0,.14,0-.28-.06-.33-.07-.13-.03.12.02.23.06.34.1l-.23-.08c.26.17.27.17.01,0l.16.17c-.19-.24-.2-.22-.03.04l-.1-.2c.07.32.07.32,0,0l.05-.24c-.09.3-.08.31.03.03l-.12.21c.19-.23.18-.24-.04-.01.18-.14.32-.18.53-.26.21-.01.18-.01-.1,0,.3.06.36.06.16,0-.19-.06-.15-.04.12.05.23.21.23.21,0-.01l-1.21,4.59c.21-.06.47-.1.67-.19.36-.15-.51,0-.04,0s-.54-.1-.22-.02c.24.06-.6-.35-.2-.08.72.5,1.64.83,2.45,1.11l1.46-5.29c-.27-.08-.55-.17-.81-.27.49.18-.14-.08-.24-.13-.38-.2-.74-.44-1.09-.68-.68-.48-1.33-1.01-2.07-1.4-.58-.3-1.2-.56-1.81-.78-.26-.09-.52-.16-.79-.24l-.23-.07c-.3-.11-.3-.11,0,0,.16.17.26.32.39.51l.03.22c.01-.3,0-.35,0-.15-.03.18.09-.19.09-.18.15-.31.33-.59.51-.88.75-1.23.31-3.07-.98-3.76-1.45-.77-2.82-.24-3.76.98-1.37,1.79-1.7,4.2-1.2,6.36.03.15.07.3.11.45.05.28.07.31.04.09-.02-.21-.02-.18,0,.08.3-.17,2.09-1.99,2.44-1.65-.13-.13-.42-.24-.59-.34-.36-.24-.37-.23-.79-.62-.39-.36-.74-.75-1.07-1.17-.89-1.11-2.98-1.02-3.88,0l-.17.2c.19-.12.21-.14.05-.04-.14.08-.15.09-.02.02.09-.06.2-.09.32-.07-1.12.09-2.06.61-2.51,1.69-.42,1-.22,2.22.57,3,.29.29.02.05-.08-.14-.11-.21-.12-.42-.07-.66l4.03-1.64c-1.26-.66-2.78-.46-3.66.69-.57.74-.68,1.55-.56,2.43.06.47.16.93.26,1.39.04.17.06.36.11.53.12.43-.05-.56-.04-.36,0,.6-.01-.63.34-1.12l.98-.98h-.03c.7-.08,1.41-.17,2.11-.26l.56.24c-1.76-.92-4.22.19-4.13,2.37l.03.7,5.11-1.39-1.64-2.52c-.75-1.15-2.14-1.67-3.43-1.12s-1.96,1.91-1.59,3.24c.08.29.05.09-.07-.58l1.36-2.37h-.01c.92,0,1.85,0,2.77,0,.23.1.72.53.81.79-.03-.07-.1-.14-.14-.21-.12-.18-.24-.36-.36-.54-.37-.55-.77-1.25-1.4-1.53-.83-.37-1.96-.62-2.77,0-1.05.81-1.62,1.94-1.24,3.26.32,1.12,1.45,2.07,2.65,2.02,1.11-.05,2.47-.81,2.65-2.02l-.26.59-1.64,1.26h.02c-.7-.1-1.41-.19-2.11-.28-.28-.15-.5-.35-.67-.6-.18-.25-.23-.3-.13-.15.02.06.08.13.1.18.07.14.4.84.2.4-.21-.46.07.27.13.39.03.08.02.22.08.29-.27-.33.21-1.61.27-1.7l.98-.98-.03.02,1.39-.37h-.05c-1.43.02-2.81,1.25-2.74,2.75s1.21,2.77,2.74,2.74c1.65-.03,2.88-1.37,2.86-2.99-.01-.93-.41-1.81-.77-2.65-.25-.58-.53-1.15-.99-1.61-.71-.7-1.76-1-2.73-.74-.84.23-1.81,1.05-1.95,1.98h5.29c-.08-.29-.05-.09.07.58l-1.36,2.37h.01c-.92,0-1.85,0-2.77,0-.23-.1-.72-.53-.81-.79.03.07.1.14.14.21.12.18.24.36.36.54.37.55.77,1.25,1.4,1.53.83.37,1.96.62,2.77,0,1.05-.81,1.62-1.94,1.24-3.26l-5.02,2.11,1.64,2.52c.64.99,1.91,1.65,3.1,1.26,1.12-.36,2.07-1.41,2.02-2.65l-.03-.7-4.13,2.37c1.26.66,2.78.46,3.66-.69.57-.74.68-1.55.56-2.43-.06-.47-.16-.93-.26-1.39-.04-.17-.06-.36-.11-.53-.12-.43.05.56.04.36,0-.6.01.63-.34,1.12l-.98.98h.03c-.7.08-1.41.17-2.11.26l-.56-.24c1.47.77,3.66.18,4.03-1.64.34-1.68-.02-3.32-1.26-4.54l-1.94,4.69c1.43-.12,2.74-.6,3.71-1.71h-3.88c1.82,2.28,5.76,5.27,8.41,2.42,1.21-1.3,1.06-3.02.63-4.6-.06-.33-.07-.35-.03-.06-.01-.13-.02-.27-.01-.4,0-.13,0-.27.02-.4-.04.29-.03.27.03-.06.01-.04.3-.79.08-.34.15-.32.35-.6.56-.88l-4.74-2.77c-1.01,1.65-1.72,3.53-1.09,5.46s2.3,2.74,4.12,3.32c.18.06.35.12.53.18-.26-.11-.24-.11.04.02.26.14.53.28.78.44.4.26.78.54,1.17.83,1.16.85,2.41,1.46,3.79,1.87s3.05-.49,3.38-1.92c.35-1.54-.47-2.86-1.92-3.38-.71-.25.16.13-.33-.13-.17-.09-.35-.18-.52-.28-.43-.23-.86-.46-1.32-.61-1.1-.36-2.31-.14-3.38.19-1.94.6-2.72,3.1-1.21,4.59,2.05,2.02,5.44,2.09,7.39-.13s1.79-5.67-.45-7.58-5.54-1.85-7.74.18c-1.84,1.7-2.53,4.55-1.71,6.92.47,1.35,1.9,2.39,3.38,1.92,1.34-.43,2.42-1.92,1.92-3.38h0Z"/>
    <path class="cls-2" d="M19.68,46.67c-1.73-1.12-3.22-2.6-4.35-4.32-1.2-1.83-1.87-3.83-2.35-5.95-.9-4-1.79-8.87-5.94-10.79-1.09-.51-2.04,1.11-.95,1.62,4.12,1.92,4.38,7.18,5.4,11,1.11,4.15,3.63,7.72,7.23,10.06,1.02.66,1.96-.96.95-1.62h0Z"/>
    <path class="cls-2" d="M19.41,48.16c1.68-.87,3.16-2.08,4.33-3.56.59-.75,1.11-1.54,1.53-2.4.44-.91.71-1.89,1.19-2.78s1.21-1.39,2.03-1.91,1.58-1.04,2.3-1.66c1.39-1.21,2.56-2.71,3.41-4.35.99-1.9,1.56-3.97,1.69-6.1.08-1.21-1.8-1.2-1.88,0-.21,3.44-1.85,6.71-4.41,9-1.32,1.18-3.11,1.86-4.22,3.27-.61.77-.95,1.68-1.3,2.59-.33.85-.73,1.66-1.24,2.41-1.1,1.65-2.62,2.96-4.37,3.86-1.07.55-.13,2.17.95,1.62h0Z"/>
    <path class="cls-2" d="M19.91,47.02c2.22-4.43,3.71-9.19,4.37-14.11.36-2.64.46-5.3.79-7.94s.82-5.12.56-7.7-1.1-4.88-2.94-6.59c-.88-.82-2.21.5-1.33,1.33,3.4,3.15,2.46,8.29,1.91,12.36-.34,2.52-.46,5.07-.75,7.6-.27,2.28-.73,4.55-1.37,6.76-.73,2.53-1.69,4.99-2.87,7.34-.54,1.08,1.08,2.03,1.62.95h0Z"/>
    <path class="cls-2" d="M22.81,12.36c2.31-.03,4.53-1.35,5.63-3.38l-1.71-.22c.01.06.02.12.04.18.03.11-.01-.18,0,0,0,.12.01.24,0,.36,0,.06,0,.12-.01.18,0,.12.04-.18,0,0-.03.12-.05.24-.09.35-.02.06-.04.11-.06.17-.04.12.1-.19,0,.01-.05.11-.11.22-.17.32-.03.05-.07.1-.1.15-.07.11.14-.16,0,0-.08.09-.16.18-.25.26-.04.03-.07.06-.11.09.17-.14-.01,0-.05.02-.1.07-.21.12-.32.18-.11.06,0,.03.02,0-.02.03-.17.06-.21.07-.1.03-.21.06-.32.08-.2.04-.02.04,0,0,0,.01-.16.01-.18.02-.12,0-.24,0-.36,0s-.12,0,0,0c-.06,0-.12-.02-.18-.03-.13-.03-.26-.07-.38-.11-.46-.16-1.05.19-1.15.66-.12.53.16.98.66,1.15,1.33.47,2.86.12,3.9-.81s1.45-2.47,1.14-3.82c-.18-.78-1.34-.92-1.71-.22-.11.21-.24.41-.38.61-.06.09-.03.04.02-.02-.04.05-.08.09-.11.14-.08.09-.16.18-.24.27-.16.16-.33.32-.5.46s.1-.07,0,0c-.05.03-.1.07-.15.11-.1.07-.2.13-.3.2-.2.12-.4.22-.61.32-.05.02-.18.11,0,0-.05.03-.11.04-.17.06-.1.04-.2.07-.31.1-.23.07-.46.12-.7.16-.16.03.04,0,.04,0,0,0-.16.02-.18.02-.13.01-.26.02-.4.02-.49,0-.96.43-.94.94s.41.95.94.94h0Z"/>
    <path class="cls-2" d="M8.97,27.9l.89-3.7c.28-1.16.71-2.45.26-3.62-.21-.54-.56-1.02-1.06-1.33-.36-.22-.8-.34-1.19-.11-.25.14-.47.36-.64.59-.65.82-.78,1.89-.77,2.91,0,1.41.07,2.82.11,4.22l1.75-.47c-.43-.74-.37-1.57.09-2.32.21-.33.53-.52.92-.81.58-.44.96-.93,1.04-1.68.05-.5-.47-.94-.94-.94-.55,0-.89.43-.94.94,0-.04,0-.07.03-.11-.06.09-.07.11-.02.04-.04.04-.24.22-.2.19-.25.2-.53.37-.78.58-.46.39-.8.9-1.03,1.45-.48,1.16-.42,2.51.22,3.6.46.79,1.77.47,1.75-.47-.04-1.32-.08-2.63-.11-3.95,0-.24,0-.47,0-.71s.03-.4.06-.57c.02-.12.05-.24.09-.36.05-.15-.01,0,.06-.16.1-.2.19-.3.26-.35l-.72.09s.08.07.11.1c.13.14.01-.01.1.15.07.13.12.32.13.52.03.6-.18,1.21-.32,1.78l-.96,3.99c-.28,1.17,1.53,1.67,1.81.5h0Z"/>
    <path class="cls-2" d="M34.55,29.35c-.96-1.98-1.53-4.24-1.49-6.44,0-.04.03-.29,0-.13l.02-.09c.03-.11.04-.12,0-.03l-.04.06c-.21.17-.41.2-.61.08-.09.03-.03-.32-.05.04-.03.61-.02,1.22-.03,1.83-.02,1.25-.05,2.5-.07,3.75s1.85,1.21,1.88,0c.03-1.62.06-3.23.09-4.85.02-.85.04-1.79-.77-2.32-.69-.45-1.61-.25-2.03.47-.34.57-.3,1.28-.26,1.92.04.8.14,1.6.29,2.38.28,1.49.78,2.93,1.45,4.29.22.46.87.58,1.28.34.47-.27.56-.83.34-1.28h0Z"/>
    <polygon class="cls-3" points="27.21 67.22 12.19 67.22 8.44 44.7 30.96 44.7 27.21 67.22"/>
    <path class="cls-2" d="M29.57,35.83c.05,2.15,1.98,4.05,4.16,3.97.38-.01.71-.22.86-.58s.07-.75-.19-1.02c-.97-1.04-1.95-2.08-2.92-3.12-.34-.36-.99-.36-1.33,0-.35.38-.36.94,0,1.33.97,1.04,1.95,2.08,2.92,3.12l.66-1.6c-.17,0-.33,0-.49-.02l.25.03c-.16-.02-.32-.06-.48-.11-.04-.01-.08-.03-.13-.04-.04-.01-.17-.07-.01,0s.02.01-.01,0c-.04-.02-.08-.04-.12-.06-.14-.07-.27-.16-.4-.25s.04.02.06.05c-.02-.03-.08-.06-.1-.09-.06-.05-.12-.11-.18-.17s-.12-.12-.17-.18c-.02-.03-.05-.06-.07-.09-.07-.08.14.19.05.07-.1-.13-.19-.27-.26-.42-.03-.07-.06-.14-.1-.2.15.29.01.02-.02-.07-.05-.16-.08-.32-.11-.48l.03.25c-.01-.1-.02-.21-.02-.31-.01-.49-.42-.96-.94-.94s-.95.41-.94.94h0Z"/>
    <path class="cls-2" d="M11.64,36.08l-3.71-.36c-.58-.06-1.17-.16-1.74-.04-.67.14-1.18.69-1.22,1.38-.05.73.52,1.36,1.18,1.59s1.29.01,1.86-.28c.11-.06.22-.12.33-.18.04-.02.28-.14.14-.08.11-.05.23-.08.34-.1-.16.04-.04,0,0,0,.19.01-.02-.02-.07-.04.06.02.1.11,0,0,.03.04.08.13,0,0,.06.09.11.19.16.28.13.26.28.5.48.71.55.59,1.49.72,2.09.13s.53-1.62-.21-2.02c-.43-.23-1.04-.12-1.28.34-.23.44-.13,1.04.34,1.28-.27-.14-.41-.57-.25-.83.11-.18.39-.31.59-.23.06.02.1.05.14.09-.04-.04-.08-.07-.12-.12.12.14-.06-.12-.08-.16-.29-.54-.62-1.02-1.23-1.23s-1.19-.05-1.73.2c-.22.1-.44.22-.65.34-.1.05-.11.05-.03.02-.06.02-.11.04-.17.06-.11.02-.12.03-.02.02-.12,0-.12,0,0,.02-.1-.03-.1-.03,0,.01-.09-.06-.09-.05,0,.01-.07-.08-.07-.07,0,.01.03.06.05.13.05.2,0,.17-.08.25-.19.36-.12.05-.13.05-.03.02.1-.02.09-.02-.03,0,.48-.03.98.06,1.46.11l3.6.35c.49.05.96-.47.94-.94-.02-.55-.41-.89-.94-.94h0Z"/>
    <path class="cls-2" d="M23.67,31.81l-1.44-4.16c-.15-.44-.55-.74-1.03-.67s-.8.45-.81.92c-.04,1.9.48,3.81,1.49,5.42.26.42.85.62,1.28.34s.62-.84.34-1.28c-.23-.37-.43-.75-.61-1.15-.12-.26.06.17-.04-.1-.04-.11-.08-.22-.12-.33-.07-.19-.13-.38-.18-.58s-.1-.39-.14-.59c-.02-.11-.04-.23-.06-.34,0-.04-.04-.29-.02-.09-.05-.43-.07-.86-.06-1.3l-1.84.25,1.44,4.16c.16.46.65.82,1.15.66.46-.15.83-.66.66-1.15h0Z"/>
    <path class="cls-2" d="M26.45,22.06c.25-1.09.5-2.18.76-3.27.11-.46-.1-.92-.54-1.11s-.92-.02-1.17.38c-.89,1.42-1.3,3.16-1.1,4.82.06.49.39.96.94.94.46-.02,1-.42.94-.94-.05-.37-.06-.74-.05-1.12,0-.17.01-.35.04-.52-.05.25.01-.07.02-.12.02-.09.03-.17.05-.26.08-.35.19-.69.32-1.03.04-.1.04-.09,0,.02.02-.05.04-.09.06-.14.03-.07.06-.13.1-.2.09-.18.19-.35.3-.52l-1.71-.72c-.25,1.09-.5,2.18-.76,3.27-.11.48.15,1.04.66,1.15.48.11,1.04-.14,1.15-.66h0Z"/>
    <path class="cls-2" d="M22.43,12.77c-.25.32-.52.62-.82.9-.15.14-.31.28-.47.41-.02.02-.17.14-.06.05.1-.08-.02.01-.04.03-.09.07-.18.13-.27.19-.33.23-.69.43-1.05.61-.09.04-.18.08-.27.12-.11.05.18-.07.01,0-.04.02-.08.03-.12.05-.2.08-.41.15-.62.21-.45.13-.73.57-.67,1.03.07.5.45.76.92.81.66.08,1.36.14,1.99-.09.7-.25,1.28-.75,1.53-1.47.13-.36.11-.75.04-1.12-.03-.15-.07-.29-.11-.44-.02-.07-.04-.13-.05-.2,0-.03-.02-.07-.02-.1.01.13.02.15,0,.05,0-.03.01-.16,0-.17.03.03-.05.24,0,.02.01-.05.04-.11.05-.17-.06.12-.07.15-.04.09.01-.03.03-.05.04-.08,0-.02.1-.13.1-.15-.09.11-.1.13-.04.06l.04-.04s.06-.05.09-.08c-.11.08-.13.1-.07.06.06-.03.12-.07.18-.1.44-.22.6-.88.34-1.28-.29-.45-.81-.57-1.28-.34-.58.29-1.02.86-1.19,1.47-.1.36-.1.72-.04,1.09.02.14.06.27.1.41.02.07.04.13.06.2,0,.01.04.2.05.2v-.11s0,.09,0,.14v.07c.02-.15.02-.18,0-.08l-.02.06c-.03.09-.02.07.03-.07-.01,0-.08.15-.09.15-.02-.03.16-.17,0-.01l-.04.04c-.08.07-.06.05.05-.03.01,0-.31.18-.31.18,0-.04.22-.08,0-.01-.07.02-.14.03-.22.05-.18.04.11,0,0,0-.07,0-.15,0-.22,0-.31,0-.62-.03-.93-.07l.25,1.84c1.76-.53,3.38-1.59,4.52-3.04.16-.2.27-.39.27-.66,0-.23-.1-.5-.27-.66-.34-.31-1-.41-1.33,0h0Z"/>
    <path class="cls-2" d="M6.13,27.45c.13.07.26.14.38.22.19.13-.13-.12.04.03.07.06.13.12.19.18.05.05.09.1.14.15.08.09-.11-.15-.04-.05.02.02.03.05.05.07.04.06.08.13.12.2.02.03.03.07.05.1.08.15-.05-.15-.01-.04.02.06.04.13.06.19s.02.17.05.22c-.01-.02-.02-.24-.01-.08,0,.04,0,.07,0,.11,0,.07,0,.15,0,.22,0,.16,0-.07.01-.08-.01.02-.02.1-.02.11-.01.06-.03.13-.05.19-.07.21.09-.17-.01.03-.04.07-.08.14-.12.22-.08.14.14-.16,0,0-.04.05-.09.09-.13.14-.1.11.04-.03.06-.04-.03.02-.06.04-.09.06s-.06.04-.1.06c-.15.09.12-.03.01,0-.05.01-.18.03-.23.06.11-.08.16,0,.05-.02-.18-.03.04.03.05.02,0,0-.13-.03-.13-.03.02,0,.21.11.07.03-.03-.02-.1-.07,0,0,.14.11-.02-.04-.03-.04.03,0,.12.17.05.06-.03-.05-.06-.16.03.07-.02-.06,0-.16,0,.09,0-.04.01-.13,0,.02s0,.04,0,0c.04-.11-.09.19-.04.09,0-.02.03-.04.04-.06-.1.12-.12.15-.07.09.02-.02.03-.04.05-.06.04-.04.09-.08.13-.12.08-.08-.16.12-.06.05.02-.02.04-.03.07-.05.12-.09.25-.17.38-.26.74-.53,1.31-1.29,1.47-2.19.09-.48-.13-1.03-.66-1.15-.46-.1-1.06.14-1.15.66-.02.1-.04.2-.07.3-.01.04-.03.08-.04.12-.06.17.02-.06.03-.05.02.02-.12.24-.14.27s-.04.07-.07.1c-.02.03-.05.07-.07.1l.07-.09s-.19.21-.21.23c-.03.03-.06.05-.09.08-.12.11.02-.03.05-.03-.06.01-.17.12-.22.15-.07.05-.15.1-.22.15-.42.3-.8.64-.96,1.15-.19.58,0,1.22.43,1.65.85.86,2.28.58,3.04-.26.66-.73.91-1.72.7-2.67s-.98-1.85-1.87-2.29c-.44-.22-1.04-.13-1.28.34-.22.42-.13,1.05.34,1.28h0Z"/>
    <path class="cls-2" d="M33.67,28.52c-.31.92-.44,1.93-.33,2.9.11,1.02.35,2.2,1.31,2.76,1.05.63,2.25.08,2.65-1.01.38-1.03-.21-2.04-.68-2.93-.55-1.04-1.1-2.09-1.65-3.13-.23-.43-.87-.6-1.28-.34-.44.29-.58.82-.34,1.28.5.94.99,1.88,1.49,2.82.11.21.22.42.33.63.06.11.12.23.18.34.02.05.05.1.07.14.05.11.06.13.03.07.04.1.07.2.09.3-.02-.13,0,.11,0,.14,0,.11,0,.1,0-.02-.01.05-.03.1-.04.15.05-.15,0-.02-.05.05.13-.17-.12.04.07-.08.11-.04.12-.04.02,0,.04-.02.08-.02.12,0,.07.01.05.01-.05-.01.09.04.08.04-.02-.01.13.11-.07-.07-.08-.08.09.11-.05-.1-.07-.13-.05-.1-.06-.11-.02-.04-.02-.06-.04-.12-.06-.18-.06-.2-.1-.4-.14-.6-.05-.26-.07-.82-.04-1.22,0-.07.01-.14.02-.21.01-.12.02-.14,0-.06.02-.1.04-.21.06-.31.05-.24.12-.48.2-.71.16-.47-.18-1.05-.66-1.15-.52-.12-.99.16-1.15.66h0Z"/>
    <path class="cls-2" d="M21.2,10.52c-1.96.35-3.92.7-5.87,1.05-.71.13-.89,1.11-.41,1.57.8.77,1.92,1.22,3.03,1.13.61-.05,1.14-.25,1.7-.46.25-.1.51-.19.78-.23-.08.01-.07.01.05,0,.07,0,.13,0,.2,0-.09-.02-.07-.02.04,0,.06.02.13.03.19.06.46.16,1.05-.18,1.15-.66.12-.52-.16-.98-.66-1.15-.56-.2-1.19-.16-1.76,0-.51.14-.98.39-1.49.52-.04,0-.4.06-.21.04-.09,0-.18.01-.27.01-.04,0-.39-.03-.2,0-.12-.02-.24-.04-.35-.08-.34-.1-.64-.26-.89-.51l-.41,1.57c1.96-.35,3.92-.7,5.87-1.05.48-.09.8-.7.66-1.15-.17-.52-.64-.75-1.15-.66h0Z"/>
    <path class="cls-2" d="M7.67,23.48c-1.44-.24-2.85.02-4.26.32-1.15.25-2.36.65-3.13,1.59-.4.49-.34,1.11.19,1.47,1,.68,2.24.41,3.28,0,.25-.1.51-.2.77-.28.15-.04.3-.09.45-.11-.17.03.04,0,.1,0,.05,0,.38.05.19,0,.09.02.17.04.25.07-.17-.05.11.06.15.09-.08-.06-.08-.06,0,.02-.06-.08-.05-.08,0,.01.28.42.83.6,1.28.34.42-.25.61-.86.34-1.28-.69-1.06-1.99-1.29-3.15-.98-.56.15-1.07.42-1.63.58-.13.04-.26.07-.39.09.13-.02-.21,0-.25,0-.14,0-.27-.05-.44-.16l.19,1.47c.08-.1.17-.19.26-.28.05-.04.09-.08.14-.12-.07.05-.05.04.04-.02.19-.12.38-.23.59-.32-.12.05.2-.07.23-.08.12-.04.25-.08.38-.12.22-.06.45-.11.67-.16,1.06-.23,2.21-.5,3.27-.32.5.08,1.01-.13,1.15-.66.12-.45-.15-1.07-.66-1.15h0Z"/>
    <path class="cls-2" d="M34.17,25.33l-.12,1.35c-.03.4.32.8.69.9.41.11.84-.08,1.06-.43.2-.33.51-.58.88-.69.45-.14.86-.08,1.35.1.43.15.87.46,1.23.78.21.18.41.38.61.58.11.11.22.23.34.35.06.06.11.12.17.17-.04-.07-.04-.06,0,.04l-.13-.47.02-.08.24-.41c.17-.11.35-.14.52-.1-.07-.04-.13-.08-.2-.12-.14-.08-.27-.15-.41-.22-.28-.14-.57-.27-.86-.38-.54-.22-1.1-.39-1.68-.5-1.25-.24-2.5-.25-3.75-.03-.5.09-.78.7-.66,1.15.15.53.65.74,1.15.66.96-.16,2.07-.13,3.04.09.48.11,1.01.27,1.44.46.56.25,1.14.75,1.77.75.89,0,1.55-.91,1.13-1.74-.25-.49-.75-.9-1.15-1.28-.89-.84-1.94-1.53-3.18-1.7-1.4-.19-2.74.45-3.49,1.65l1.75.47.12-1.35c.04-.51-.46-.94-.94-.94-.54,0-.89.43-.94.94h0Z"/>
    <path class="cls-2" d="M24.64,21.98c.34.91.74,1.79,1.23,2.62.23.39.48.78.74,1.15s.56.83.92,1.14c.55.48,1.4.6,1.95.04s.37-1.32,0-1.92c-.51-.83-1.13-1.61-1.83-2.28-.46-.44-.98-.94-1.66-.95-.39,0-.78.14-1.04.44-.16.19-.24.37-.34.6.02-.04.1-.14.01-.04.11-.14.3-.29.49-.26l.47.13.3.83-.24.41.03-.04c.32-.37.39-.97,0-1.33-.35-.32-.98-.4-1.33,0-.26.29-.4.67-.27,1.06.13.41.47.73.9.79.36.05.73-.06.99-.32.09-.09.18-.2.24-.31.02-.03.03-.05.04-.08.03-.06.05-.12.07-.18.05-.13.06-.15.03-.06l-.02.05c.04-.07.04-.08,0-.02l-.03.04c-.09.1-.19.15-.3.15-.06,0-.11,0-.17-.01.15.03,0,0-.02-.02.04.03.09.05.13.08-.01,0-.11-.1-.04-.03.08.09.18.16.27.24.29.27.57.56.84.87.07.08.14.16.21.25.03.04.07.08.1.13,0-.01-.09-.12-.02-.03.13.17.25.35.37.52.11.17.21.33.31.51.03.05.02.1.01.02,0-.2-.05-.12.06-.37.08-.19.15-.3.35-.37.13-.04.24,0,.36.04-.04-.02-.08-.08-.01,0,.08.1,0-.02-.03-.04-.06-.06-.11-.13-.16-.19-.03-.04-.07-.08-.1-.13.02.03.11.14,0,0-.06-.09-.13-.17-.19-.26-.24-.33-.46-.66-.67-1-.24-.4-.47-.81-.67-1.24-.1-.21-.19-.41-.28-.62.08.18-.04-.09-.06-.15-.05-.12-.1-.25-.14-.38-.17-.46-.64-.82-1.15-.66-.45.15-.84.66-.66,1.15h0Z"/>
    <path class="cls-2" d="M23.85,10.69c-.25-1.18-.54-2.48-.24-3.68s1.27-1.94,2.25-2.6c1.1-.74,2.22-1.53,3.45-2.02s2.66-.62,4.02-.42c2.84.42,5.43,1.82,8.18,2.57s5.71,1.15,8.57,1c.76-.04,1.55-.21,1.98-.91.37-.62.29-1.39-.24-1.89-.45-.43-1.16-.55-1.75-.38-.32.09-.6.27-.87.46-.11.08-.65.53-.73.49-1.08-.52-2.04,1.1-.95,1.62.61.3,1.21.31,1.83.02.23-.11.43-.25.64-.4.09-.07.58-.32.61-.39-.03.07-.14-.55-.13-.54,0,0-.35.04-.4.05-.35.03-.71.02-1.07.02-.75,0-1.5-.04-2.25-.1-2.82-.24-5.5-.99-8.13-1.98S33.41-.3,30.62.1c-2.5.36-4.84,1.93-6.79,3.47-1.08.85-1.88,1.96-2.11,3.33s.02,2.88.32,4.29c.25,1.18,2.06.68,1.81-.5h0Z"/>
    <path class="cls-2" d="M46.07,4.93l.41,3.16c.07.52.13,1.04.2,1.55.07.55.13,1.1.47,1.57s.89.83,1.5.78,1.14-.38,1.45-.9.33-1.11.23-1.69c-.04-.23-.12-.45-.21-.67-.06-.14-.12-.28-.18-.43-.03-.07-.06-.13-.09-.2,0,0-.07-.15-.04-.08-.43-1.03-.62-2.05-.64-3.1,0-.49-.43-.96-.94-.94s-.94.41-.94.94c.01,1.08.19,2.17.55,3.19.17.49.44,1,.59,1.43.02.07.04.14.06.21.02.11.03.13.02.07,0-.06,0-.03,0,.08,0,.07,0,.13,0,.2,0-.09,0-.07-.02.04.02-.05.02-.06,0,0-.03.06-.03.05.02-.02-.08.07-.08.08-.01.01.1-.03.1-.03,0,0h.09c.05-.01.1,0,.14.03.06.06.05.06-.03-.02.11.14-.07-.12,0,.01-.06-.12-.08-.27-.1-.4-.06-.33.02.2-.03-.18-.02-.16-.04-.32-.06-.48l-.11-.84-.44-3.34c-.06-.48-.39-.96-.94-.94-.45.02-1.01.42-.94.94h0Z"/>
  </g>
</svg>